<svg xmlns="http://www.w3.org/2000/svg" version="1.1" xmlns:xlink="http://www.w3.org/1999/xlink" width="500" height="500"><svg xmlns="http://www.w3.org/2000/svg" version="1.1" xmlns:xlink="http://www.w3.org/1999/xlink" width="500" height="500"><svg xmlns="http://www.w3.org/2000/svg" xmlns:xlink="http://www.w3.org/1999/xlink" width="500" zoomAndPan="magnify" viewBox="0 0 375 374.999991" height="500" preserveAspectRatio="xMidYMid meet" version="1.0"><defs><clipPath id="30c3a50da3"><path d="M 0 0 L 375 0 L 375 375 L 0 375 Z M 0 0 " clip-rule="nonzero"></path></clipPath><clipPath id="6bba1efce3"><path d="M 10.175781 -14.886719 L 364.824219 -14.886719 C 388.019531 -14.886719 406.824219 3.917969 406.824219 27.113281 L 406.824219 381.765625 C 406.824219 404.960938 388.019531 423.765625 364.824219 423.765625 L 10.175781 423.765625 C -13.019531 423.765625 -31.824219 404.960938 -31.824219 381.765625 L -31.824219 27.113281 C -31.824219 3.917969 -13.019531 -14.886719 10.175781 -14.886719 Z M 10.175781 -14.886719 " clip-rule="nonzero"></path></clipPath><clipPath id="bb88b57d4b"><path d="M 0 0 L 375 0 L 375 375 L 0 375 Z M 0 0 " clip-rule="nonzero"></path></clipPath><clipPath id="cb2fb7f37d"><path d="M 10.175781 -14.886719 L 364.824219 -14.886719 C 388.019531 -14.886719 406.824219 3.917969 406.824219 27.113281 L 406.824219 381.765625 C 406.824219 404.960938 388.019531 423.765625 364.824219 423.765625 L 10.175781 423.765625 C -13.019531 423.765625 -31.824219 404.960938 -31.824219 381.765625 L -31.824219 27.113281 C -31.824219 3.917969 -13.019531 -14.886719 10.175781 -14.886719 Z M 10.175781 -14.886719 " clip-rule="nonzero"></path></clipPath><clipPath id="792381564f"><rect x="0" width="375" y="0" height="375"></rect></clipPath><clipPath id="6408d2a2d7"><path d="M 88.003906 56.339844 L 311.15625 56.339844 L 311.15625 325.691406 L 88.003906 325.691406 Z M 88.003906 56.339844 " clip-rule="nonzero"></path></clipPath><clipPath id="0e70a844b4"><path d="M 130.003906 56.339844 L 269.15625 56.339844 C 280.296875 56.339844 290.980469 60.765625 298.855469 68.640625 C 306.730469 76.515625 311.15625 87.199219 311.15625 98.339844 L 311.15625 283.6875 C 311.15625 294.828125 306.730469 305.511719 298.855469 313.386719 C 290.980469 321.265625 280.296875 325.6875 269.15625 325.6875 L 130.003906 325.6875 C 118.867188 325.6875 108.183594 321.265625 100.308594 313.386719 C 92.429688 305.511719 88.003906 294.828125 88.003906 283.6875 L 88.003906 98.339844 C 88.003906 87.199219 92.429688 76.515625 100.308594 68.640625 C 108.183594 60.765625 118.867188 56.339844 130.003906 56.339844 Z M 130.003906 56.339844 " clip-rule="nonzero"></path></clipPath><clipPath id="e5b58dfb30"><path d="M 0.00390625 0.339844 L 223.15625 0.339844 L 223.15625 269.691406 L 0.00390625 269.691406 Z M 0.00390625 0.339844 " clip-rule="nonzero"></path></clipPath><clipPath id="a0773b700c"><path d="M 42.003906 0.339844 L 181.15625 0.339844 C 192.296875 0.339844 202.980469 4.765625 210.855469 12.640625 C 218.730469 20.515625 223.15625 31.199219 223.15625 42.339844 L 223.15625 227.6875 C 223.15625 238.828125 218.730469 249.511719 210.855469 257.386719 C 202.980469 265.265625 192.296875 269.6875 181.15625 269.6875 L 42.003906 269.6875 C 30.867188 269.6875 20.183594 265.265625 12.308594 257.386719 C 4.429688 249.511719 0.00390625 238.828125 0.00390625 227.6875 L 0.00390625 42.339844 C 0.00390625 31.199219 4.429688 20.515625 12.308594 12.640625 C 20.183594 4.765625 30.867188 0.339844 42.003906 0.339844 Z M 42.003906 0.339844 " clip-rule="nonzero"></path></clipPath><clipPath id="ebff0129b3"><rect x="0" width="224" y="0" height="270"></rect></clipPath><clipPath id="d0225f3214"><path d="M 0 129.007812 L 375 129.007812 L 375 151.25 L 0 151.25 Z M 0 129.007812 " clip-rule="nonzero"></path></clipPath><clipPath id="3dfc902a35"><path d="M -20.703125 129.007812 L 395.703125 129.007812 C 401.84375 129.007812 406.824219 133.984375 406.824219 140.128906 C 406.824219 146.269531 401.84375 151.25 395.703125 151.25 L -20.703125 151.25 C -26.84375 151.25 -31.824219 146.269531 -31.824219 140.128906 C -31.824219 133.984375 -26.84375 129.007812 -20.703125 129.007812 Z M -20.703125 129.007812 " clip-rule="nonzero"></path></clipPath><clipPath id="ed296812f9"><path d="M 0 0.0078125 L 375 0.0078125 L 375 22.25 L 0 22.25 Z M 0 0.0078125 " clip-rule="nonzero"></path></clipPath><clipPath id="00f1bb5d2a"><path d="M -20.703125 0.0078125 L 395.703125 0.0078125 C 401.84375 0.0078125 406.824219 4.984375 406.824219 11.128906 C 406.824219 17.269531 401.84375 22.25 395.703125 22.25 L -20.703125 22.25 C -26.84375 22.25 -31.824219 17.269531 -31.824219 11.128906 C -31.824219 4.984375 -26.84375 0.0078125 -20.703125 0.0078125 Z M -20.703125 0.0078125 " clip-rule="nonzero"></path></clipPath><clipPath id="bd7c2bd213"><rect x="0" width="375" y="0" height="23"></rect></clipPath><clipPath id="a9374bea2e"><path d="M 139.734375 174.761719 L 171.847656 174.761719 L 171.847656 310.242188 L 139.734375 310.242188 Z M 139.734375 174.761719 " clip-rule="nonzero"></path></clipPath><clipPath id="3e13e677c1"><path d="M 171.847656 190.820312 L 171.847656 294.15625 C 171.847656 303.027344 164.660156 310.214844 155.789062 310.214844 C 146.921875 310.214844 139.734375 303.027344 139.734375 294.15625 L 139.734375 190.820312 C 139.734375 181.949219 146.921875 174.761719 155.789062 174.761719 C 164.660156 174.761719 171.847656 181.949219 171.847656 190.820312 Z M 171.847656 190.820312 " clip-rule="nonzero"></path></clipPath><clipPath id="4a68affb6c"><path d="M 0.734375 0.761719 L 32.847656 0.761719 L 32.847656 136.242188 L 0.734375 136.242188 Z M 0.734375 0.761719 " clip-rule="nonzero"></path></clipPath><clipPath id="a1407a8f3b"><path d="M 32.847656 16.820312 L 32.847656 120.15625 C 32.847656 129.027344 25.660156 136.214844 16.789062 136.214844 C 7.921875 136.214844 0.734375 129.027344 0.734375 120.15625 L 0.734375 16.820312 C 0.734375 7.949219 7.921875 0.761719 16.789062 0.761719 C 25.660156 0.761719 32.847656 7.949219 32.847656 16.820312 Z M 32.847656 16.820312 " clip-rule="nonzero"></path></clipPath><clipPath id="c82e427634"><rect x="0" width="33" y="0" height="137"></rect></clipPath><clipPath id="456e8c3218"><path d="M 139.726562 63.828125 L 171.839844 63.828125 L 171.839844 118.523438 L 139.726562 118.523438 Z M 139.726562 63.828125 " clip-rule="nonzero"></path></clipPath><clipPath id="e5eec92014"><path d="M 171.839844 79.886719 L 171.839844 102.441406 C 171.839844 111.308594 164.652344 118.496094 155.78125 118.496094 C 146.914062 118.496094 139.726562 111.308594 139.726562 102.441406 L 139.726562 79.886719 C 139.726562 71.019531 146.914062 63.828125 155.78125 63.828125 C 164.652344 63.828125 171.839844 71.019531 171.839844 79.886719 Z M 171.839844 79.886719 " clip-rule="nonzero"></path></clipPath><clipPath id="fe828f299f"><path d="M 0.726562 0.828125 L 32.839844 0.828125 L 32.839844 55.523438 L 0.726562 55.523438 Z M 0.726562 0.828125 " clip-rule="nonzero"></path></clipPath><clipPath id="e7d4b0ebb9"><path d="M 32.839844 16.886719 L 32.839844 39.441406 C 32.839844 48.308594 25.652344 55.496094 16.78125 55.496094 C 7.914062 55.496094 0.726562 48.308594 0.726562 39.441406 L 0.726562 16.886719 C 0.726562 8.019531 7.914062 0.828125 16.78125 0.828125 C 25.652344 0.828125 32.839844 8.019531 32.839844 16.886719 Z M 32.839844 16.886719 " clip-rule="nonzero"></path></clipPath><clipPath id="b4da89d10f"><rect x="0" width="33" y="0" height="56"></rect></clipPath><clipPath id="bb3f79c94e"><rect x="0" width="375" y="0" height="375"></rect></clipPath></defs><rect x="-37.5" width="450" fill="#ffffff" y="-37.499999" height="449.999989" fill-opacity="1"></rect><rect x="-37.5" width="450" fill="#ffffff" y="-37.499999" height="449.999989" fill-opacity="1"></rect><g transform="matrix(1, 0, 0, 1, 0, 0)"><g clip-path="url(#bb3f79c94e)"><g clip-path="url(#30c3a50da3)"><g clip-path="url(#6bba1efce3)"><g transform="matrix(1, 0, 0, 1, 0, 0)"><g clip-path="url(#792381564f)"><g clip-path="url(#bb88b57d4b)"><g clip-path="url(#cb2fb7f37d)"><rect x="-136.5" width="648" fill="#ea2a33" y="-136.499997" height="647.999984" fill-opacity="1"></rect></g></g></g></g></g></g><g clip-path="url(#6408d2a2d7)"><g clip-path="url(#0e70a844b4)"><g transform="matrix(1, 0, 0, 1, 88, 56)"><g clip-path="url(#ebff0129b3)"><g clip-path="url(#e5b58dfb30)"><g clip-path="url(#a0773b700c)"><path fill="#ffffff" d="M 0.00390625 0.339844 L 223.15625 0.339844 L 223.15625 269.691406 L 0.00390625 269.691406 Z M 0.00390625 0.339844 " fill-opacity="1" fill-rule="nonzero"></path></g></g></g></g></g></g><g clip-path="url(#d0225f3214)"><g clip-path="url(#3dfc902a35)"><g transform="matrix(1, 0, 0, 1, 0, 129)"><g clip-path="url(#bd7c2bd213)"><g clip-path="url(#ed296812f9)"><g clip-path="url(#00f1bb5d2a)"><path fill="#ea2a33" d="M -31.824219 0.0078125 L 406.847656 0.0078125 L 406.847656 22.25 L -31.824219 22.25 Z M -31.824219 0.0078125 " fill-opacity="1" fill-rule="nonzero"></path></g></g></g></g></g></g><g clip-path="url(#a9374bea2e)"><g clip-path="url(#3e13e677c1)"><g transform="matrix(1, 0, 0, 1, 139, 174)"><g clip-path="url(#c82e427634)"><g clip-path="url(#4a68affb6c)"><g clip-path="url(#a1407a8f3b)"><path fill="#ea2a33" d="M 32.847656 0.761719 L 32.847656 136.242188 L 0.734375 136.242188 L 0.734375 0.761719 Z M 32.847656 0.761719 " fill-opacity="1" fill-rule="nonzero"></path></g></g></g></g></g></g><g clip-path="url(#456e8c3218)"><g clip-path="url(#e5eec92014)"><g transform="matrix(1, 0, 0, 1, 139, 63)"><g clip-path="url(#b4da89d10f)"><g clip-path="url(#fe828f299f)"><g clip-path="url(#e7d4b0ebb9)"><path fill="#ea2a33" d="M 32.839844 0.828125 L 32.839844 55.523438 L 0.726562 55.523438 L 0.726562 0.828125 Z M 32.839844 0.828125 " fill-opacity="1" fill-rule="nonzero"></path></g></g></g></g></g></g></g></g></svg></svg><style>@media (prefers-color-scheme: light) { :root { filter: none; } }
@media (prefers-color-scheme: dark) { :root { filter: none; } }
</style></svg>