<svg xmlns="http://www.w3.org/2000/svg" xmlns:xlink="http://www.w3.org/1999/xlink" width="240" zoomAndPan="magnify" viewBox="65 150 240 80" height="80" preserveAspectRatio="xMidYMid meet" version="1.0"><defs><g/><clipPath id="c41f333770"><path d="M 69.085938 152.46875 L 142.183594 152.46875 L 142.183594 225.566406 L 69.085938 225.566406 Z M 69.085938 152.46875 " clip-rule="nonzero"/></clipPath><clipPath id="acf9ab613b"><path d="M 83.335938 152.46875 L 127.933594 152.46875 C 135.800781 152.46875 142.183594 158.847656 142.183594 166.71875 L 142.183594 211.316406 C 142.183594 219.1875 135.800781 225.566406 127.933594 225.566406 L 83.335938 225.566406 C 75.464844 225.566406 69.085938 219.1875 69.085938 211.316406 L 69.085938 166.71875 C 69.085938 158.847656 75.464844 152.46875 83.335938 152.46875 Z M 83.335938 152.46875 " clip-rule="nonzero"/></clipPath><clipPath id="64519c4c09"><path d="M 0.0859375 0.46875 L 73.183594 0.46875 L 73.183594 73.566406 L 0.0859375 73.566406 Z M 0.0859375 0.46875 " clip-rule="nonzero"/></clipPath><clipPath id="6661b36413"><path d="M 14.335938 0.46875 L 58.933594 0.46875 C 66.800781 0.46875 73.183594 6.847656 73.183594 14.71875 L 73.183594 59.316406 C 73.183594 67.1875 66.800781 73.566406 58.933594 73.566406 L 14.335938 73.566406 C 6.464844 73.566406 0.0859375 67.1875 0.0859375 59.316406 L 0.0859375 14.71875 C 0.0859375 6.847656 6.464844 0.46875 14.335938 0.46875 Z M 14.335938 0.46875 " clip-rule="nonzero"/></clipPath><clipPath id="def1784cf5"><rect x="0" width="74" y="0" height="74"/></clipPath><clipPath id="89b7cb1e9f"><path d="M 89.054688 164.527344 L 126.242188 164.527344 L 126.242188 210.574219 L 89.054688 210.574219 Z M 89.054688 164.527344 " clip-rule="nonzero"/></clipPath><clipPath id="135b59eebd"><path d="M 94.304688 164.527344 L 120.992188 164.527344 C 122.382812 164.527344 123.71875 165.082031 124.703125 166.066406 C 125.6875 167.050781 126.242188 168.386719 126.242188 169.777344 L 126.242188 205.222656 C 126.242188 206.613281 125.6875 207.949219 124.703125 208.933594 C 123.71875 209.917969 122.382812 210.472656 120.992188 210.472656 L 94.304688 210.472656 C 92.910156 210.472656 91.574219 209.917969 90.589844 208.933594 C 89.605469 207.949219 89.054688 206.613281 89.054688 205.222656 L 89.054688 169.777344 C 89.054688 168.386719 89.605469 167.050781 90.589844 166.066406 C 91.574219 165.082031 92.910156 164.527344 94.304688 164.527344 Z M 94.304688 164.527344 " clip-rule="nonzero"/></clipPath><clipPath id="e7f2a8297b"><path d="M 0.0546875 0.527344 L 37.242188 0.527344 L 37.242188 46.480469 L 0.0546875 46.480469 Z M 0.0546875 0.527344 " clip-rule="nonzero"/></clipPath><clipPath id="5b53fef8a7"><path d="M 5.304688 0.527344 L 31.992188 0.527344 C 33.382812 0.527344 34.71875 1.082031 35.703125 2.066406 C 36.6875 3.050781 37.242188 4.386719 37.242188 5.777344 L 37.242188 41.222656 C 37.242188 42.613281 36.6875 43.949219 35.703125 44.933594 C 34.71875 45.917969 33.382812 46.472656 31.992188 46.472656 L 5.304688 46.472656 C 3.910156 46.472656 2.574219 45.917969 1.589844 44.933594 C 0.605469 43.949219 0.0546875 42.613281 0.0546875 41.222656 L 0.0546875 5.777344 C 0.0546875 4.386719 0.605469 3.050781 1.589844 2.066406 C 2.574219 1.082031 3.910156 0.527344 5.304688 0.527344 Z M 5.304688 0.527344 " clip-rule="nonzero"/></clipPath><clipPath id="fe0a835a4a"><rect x="0" width="38" y="0" height="47"/></clipPath><clipPath id="f1352fbf01"><path d="M 77.359375 175.195312 L 142.1875 175.195312 L 142.1875 178.484375 L 77.359375 178.484375 Z M 77.359375 175.195312 " clip-rule="nonzero"/></clipPath><clipPath id="b06612f82f"><path d="M 79.003906 175.195312 L 140.539062 175.195312 C 141.445312 175.195312 142.183594 175.933594 142.183594 176.839844 C 142.183594 177.75 141.445312 178.484375 140.539062 178.484375 L 79.003906 178.484375 C 78.097656 178.484375 77.359375 177.75 77.359375 176.839844 C 77.359375 175.933594 78.097656 175.195312 79.003906 175.195312 Z M 79.003906 175.195312 " clip-rule="nonzero"/></clipPath><clipPath id="9e363670ac"><path d="M 0.359375 0.195312 L 65.1875 0.195312 L 65.1875 3.484375 L 0.359375 3.484375 Z M 0.359375 0.195312 " clip-rule="nonzero"/></clipPath><clipPath id="ba73db044d"><path d="M 2.003906 0.195312 L 63.539062 0.195312 C 64.445312 0.195312 65.183594 0.933594 65.183594 1.839844 C 65.183594 2.75 64.445312 3.484375 63.539062 3.484375 L 2.003906 3.484375 C 1.097656 3.484375 0.359375 2.75 0.359375 1.839844 C 0.359375 0.933594 1.097656 0.195312 2.003906 0.195312 Z M 2.003906 0.195312 " clip-rule="nonzero"/></clipPath><clipPath id="b8c97ee64f"><rect x="0" width="66" y="0" height="4"/></clipPath><clipPath id="4c4b8b4e28"><path d="M 97.675781 181.578125 L 101.144531 181.578125 L 101.144531 196.214844 L 97.675781 196.214844 Z M 97.675781 181.578125 " clip-rule="nonzero"/></clipPath><clipPath id="b798afa5f3"><path d="M 101.144531 183.3125 L 101.144531 194.476562 C 101.144531 195.433594 100.367188 196.210938 99.410156 196.210938 C 98.449219 196.210938 97.675781 195.433594 97.675781 194.476562 L 97.675781 183.3125 C 97.675781 182.355469 98.449219 181.578125 99.410156 181.578125 C 100.367188 181.578125 101.144531 182.355469 101.144531 183.3125 Z M 101.144531 183.3125 " clip-rule="nonzero"/></clipPath><clipPath id="d9db75e494"><path d="M 0.675781 0.578125 L 4.144531 0.578125 L 4.144531 15.214844 L 0.675781 15.214844 Z M 0.675781 0.578125 " clip-rule="nonzero"/></clipPath><clipPath id="d003ddce3e"><path d="M 4.144531 2.3125 L 4.144531 13.476562 C 4.144531 14.433594 3.367188 15.210938 2.410156 15.210938 C 1.449219 15.210938 0.675781 14.433594 0.675781 13.476562 L 0.675781 2.3125 C 0.675781 1.355469 1.449219 0.578125 2.410156 0.578125 C 3.367188 0.578125 4.144531 1.355469 4.144531 2.3125 Z M 4.144531 2.3125 " clip-rule="nonzero"/></clipPath><clipPath id="9d89d2e970"><rect x="0" width="5" y="0" height="16"/></clipPath><clipPath id="f36ac7c3f2"><path d="M 97.671875 166.09375 L 101.140625 166.09375 L 101.140625 172 L 97.671875 172 Z M 97.671875 166.09375 " clip-rule="nonzero"/></clipPath><clipPath id="c81fd49ed2"><path d="M 101.140625 167.828125 L 101.140625 170.261719 C 101.140625 171.222656 100.363281 171.996094 99.40625 171.996094 C 98.449219 171.996094 97.671875 171.222656 97.671875 170.261719 L 97.671875 167.828125 C 97.671875 166.867188 98.449219 166.09375 99.40625 166.09375 C 100.363281 166.09375 101.140625 166.867188 101.140625 167.828125 Z M 101.140625 167.828125 " clip-rule="nonzero"/></clipPath><clipPath id="8b6bf97456"><path d="M 0.671875 0.09375 L 4.140625 0.09375 L 4.140625 6 L 0.671875 6 Z M 0.671875 0.09375 " clip-rule="nonzero"/></clipPath><clipPath id="b68562f986"><path d="M 4.140625 1.828125 L 4.140625 4.261719 C 4.140625 5.222656 3.363281 5.996094 2.40625 5.996094 C 1.449219 5.996094 0.671875 5.222656 0.671875 4.261719 L 0.671875 1.828125 C 0.671875 0.867188 1.449219 0.09375 2.40625 0.09375 C 3.363281 0.09375 4.140625 0.867188 4.140625 1.828125 Z M 4.140625 1.828125 " clip-rule="nonzero"/></clipPath><clipPath id="684ba9a048"><rect x="0" width="5" y="0" height="6"/></clipPath><clipPath id="9c2800c98d"><rect x="0" width="119" y="0" height="28"/></clipPath></defs><g clip-path="url(#c41f333770)"><g clip-path="url(#acf9ab613b)"><g transform="matrix(1, 0, 0, 1, 69, 152)"><g clip-path="url(#def1784cf5)"><g clip-path="url(#64519c4c09)"><g clip-path="url(#6661b36413)"><path fill="#ffffff" d="M 0.0859375 0.46875 L 73.183594 0.46875 L 73.183594 73.566406 L 0.0859375 73.566406 Z M 0.0859375 0.46875 " fill-opacity="1" fill-rule="nonzero"/></g></g></g></g></g></g><g clip-path="url(#89b7cb1e9f)"><g clip-path="url(#135b59eebd)"><g transform="matrix(1, 0, 0, 1, 89, 164)"><g clip-path="url(#fe0a835a4a)"><g clip-path="url(#e7f2a8297b)"><g clip-path="url(#5b53fef8a7)"><path fill="#ffffff" d="M 0.0546875 0.527344 L 37.242188 0.527344 L 37.242188 46.429688 L 0.0546875 46.429688 Z M 0.0546875 0.527344 " fill-opacity="1" fill-rule="nonzero"/></g></g></g></g></g></g><g clip-path="url(#f1352fbf01)"><g clip-path="url(#b06612f82f)"><g transform="matrix(1, 0, 0, 1, 77, 175)"><g clip-path="url(#b8c97ee64f)"><g clip-path="url(#9e363670ac)"><g clip-path="url(#ba73db044d)"><path fill="#ffffff" d="M 0.359375 0.195312 L 65.1875 0.195312 L 65.1875 3.484375 L 0.359375 3.484375 Z M 0.359375 0.195312 " fill-opacity="1" fill-rule="nonzero"/></g></g></g></g></g></g><g clip-path="url(#4c4b8b4e28)"><g clip-path="url(#b798afa5f3)"><g transform="matrix(1, 0, 0, 1, 97, 181)"><g clip-path="url(#9d89d2e970)"><g clip-path="url(#d9db75e494)"><g clip-path="url(#d003ddce3e)"><path fill="#ffffff" d="M 4.144531 0.578125 L 4.144531 15.214844 L 0.675781 15.214844 L 0.675781 0.578125 Z M 4.144531 0.578125 " fill-opacity="1" fill-rule="nonzero"/></g></g></g></g></g></g><g clip-path="url(#f36ac7c3f2)"><g clip-path="url(#c81fd49ed2)"><g transform="matrix(1, 0, 0, 1, 97, 166)"><g clip-path="url(#684ba9a048)"><g clip-path="url(#8b6bf97456)"><g clip-path="url(#b68562f986)"><path fill="#ffffff" d="M 4.140625 0.09375 L 4.140625 6 L 0.671875 6 L 0.671875 0.09375 Z M 4.140625 0.09375 " fill-opacity="1" fill-rule="nonzero"/></g></g></g></g></g></g><g fill="#ffffff" fill-opacity="1"><g transform="translate(157.627597, 208.188092)"><g><path d="M 9.296875 -2.9375 L 3.515625 -2.9375 L 2.453125 0 L 0.625 0 L 5.421875 -13.171875 L 7.40625 -13.171875 L 12.171875 0 L 10.359375 0 Z M 8.796875 -4.34375 L 6.40625 -11.03125 L 4.015625 -4.34375 Z M 8.796875 -4.34375 "/></g></g></g><g fill="#ffffff" fill-opacity="1"><g transform="translate(170.430983, 208.188092)"><g><path d="M 10.3125 -9.359375 C 10.3125 -8.265625 9.9375 -7.351562 9.1875 -6.625 C 8.4375 -5.894531 7.285156 -5.53125 5.734375 -5.53125 L 3.1875 -5.53125 L 3.1875 0 L 1.46875 0 L 1.46875 -13.25 L 5.734375 -13.25 C 7.234375 -13.25 8.367188 -12.882812 9.140625 -12.15625 C 9.921875 -11.4375 10.3125 -10.503906 10.3125 -9.359375 Z M 5.734375 -6.953125 C 6.703125 -6.953125 7.410156 -7.160156 7.859375 -7.578125 C 8.316406 -7.992188 8.546875 -8.585938 8.546875 -9.359375 C 8.546875 -10.992188 7.609375 -11.8125 5.734375 -11.8125 L 3.1875 -11.8125 L 3.1875 -6.953125 Z M 5.734375 -6.953125 "/></g></g></g><g fill="#ffffff" fill-opacity="1"><g transform="translate(181.429739, 208.188092)"><g><path d="M 10.3125 -9.359375 C 10.3125 -8.265625 9.9375 -7.351562 9.1875 -6.625 C 8.4375 -5.894531 7.285156 -5.53125 5.734375 -5.53125 L 3.1875 -5.53125 L 3.1875 0 L 1.46875 0 L 1.46875 -13.25 L 5.734375 -13.25 C 7.234375 -13.25 8.367188 -12.882812 9.140625 -12.15625 C 9.921875 -11.4375 10.3125 -10.503906 10.3125 -9.359375 Z M 5.734375 -6.953125 C 6.703125 -6.953125 7.410156 -7.160156 7.859375 -7.578125 C 8.316406 -7.992188 8.546875 -8.585938 8.546875 -9.359375 C 8.546875 -10.992188 7.609375 -11.8125 5.734375 -11.8125 L 3.1875 -11.8125 L 3.1875 -6.953125 Z M 5.734375 -6.953125 "/></g></g></g><g fill="#ffffff" fill-opacity="1"><g transform="translate(192.428494, 208.188092)"><g><path d="M 3.1875 -1.40625 L 7.828125 -1.40625 L 7.828125 0 L 1.46875 0 L 1.46875 -13.25 L 3.1875 -13.25 Z M 3.1875 -1.40625 "/></g></g></g><g fill="#ffffff" fill-opacity="1"><g transform="translate(200.634823, 208.188092)"><g><path d="M 3.1875 -13.25 L 3.1875 0 L 1.46875 0 L 1.46875 -13.25 Z M 3.1875 -13.25 "/></g></g></g><g fill="#ffffff" fill-opacity="1"><g transform="translate(205.307869, 208.188092)"><g><path d="M 9.296875 -2.9375 L 3.515625 -2.9375 L 2.453125 0 L 0.625 0 L 5.421875 -13.171875 L 7.40625 -13.171875 L 12.171875 0 L 10.359375 0 Z M 8.796875 -4.34375 L 6.40625 -11.03125 L 4.015625 -4.34375 Z M 8.796875 -4.34375 "/></g></g></g><g fill="#ffffff" fill-opacity="1"><g transform="translate(218.111255, 208.188092)"><g><path d="M 11.875 0 L 10.140625 0 L 3.1875 -10.546875 L 3.1875 0 L 1.46875 0 L 1.46875 -13.265625 L 3.1875 -13.265625 L 10.140625 -2.734375 L 10.140625 -13.265625 L 11.875 -13.265625 Z M 11.875 0 "/></g></g></g><g fill="#ffffff" fill-opacity="1"><g transform="translate(231.465525, 208.188092)"><g><path d="M 0.8125 -6.625 C 0.8125 -7.914062 1.101562 -9.078125 1.6875 -10.109375 C 2.269531 -11.148438 3.066406 -11.957031 4.078125 -12.53125 C 5.085938 -13.113281 6.203125 -13.40625 7.421875 -13.40625 C 8.867188 -13.40625 10.128906 -13.054688 11.203125 -12.359375 C 12.285156 -11.671875 13.070312 -10.6875 13.5625 -9.40625 L 11.5 -9.40625 C 11.125 -10.207031 10.59375 -10.820312 9.90625 -11.25 C 9.21875 -11.675781 8.390625 -11.890625 7.421875 -11.890625 C 6.503906 -11.890625 5.675781 -11.675781 4.9375 -11.25 C 4.207031 -10.820312 3.628906 -10.210938 3.203125 -9.421875 C 2.785156 -8.628906 2.578125 -7.695312 2.578125 -6.625 C 2.578125 -5.570312 2.785156 -4.648438 3.203125 -3.859375 C 3.628906 -3.066406 4.207031 -2.457031 4.9375 -2.03125 C 5.675781 -1.601562 6.503906 -1.390625 7.421875 -1.390625 C 8.390625 -1.390625 9.21875 -1.597656 9.90625 -2.015625 C 10.59375 -2.441406 11.125 -3.054688 11.5 -3.859375 L 13.5625 -3.859375 C 13.070312 -2.585938 12.285156 -1.609375 11.203125 -0.921875 C 10.128906 -0.234375 8.867188 0.109375 7.421875 0.109375 C 6.203125 0.109375 5.085938 -0.175781 4.078125 -0.75 C 3.066406 -1.320312 2.269531 -2.117188 1.6875 -3.140625 C 1.101562 -4.171875 0.8125 -5.332031 0.8125 -6.625 Z M 0.8125 -6.625 "/></g></g></g><g fill="#ffffff" fill-opacity="1"><g transform="translate(246.130533, 208.188092)"><g><path d="M 3.1875 -11.84375 L 3.1875 -7.40625 L 8.015625 -7.40625 L 8.015625 -5.984375 L 3.1875 -5.984375 L 3.1875 -1.421875 L 8.59375 -1.421875 L 8.59375 0 L 1.46875 0 L 1.46875 -13.265625 L 8.59375 -13.265625 L 8.59375 -11.84375 Z M 3.1875 -11.84375 "/></g></g></g><g fill="#ffffff" fill-opacity="1"><g transform="translate(255.875542, 208.188092)"><g/></g></g><g fill="#ffffff" fill-opacity="1"><g transform="translate(260.947506, 208.188092)"><g><path d="M 11.671875 -13.25 L 11.671875 0 L 9.9375 0 L 9.9375 -6 L 3.1875 -6 L 3.1875 0 L 1.46875 0 L 1.46875 -13.25 L 3.1875 -13.25 L 3.1875 -7.421875 L 9.9375 -7.421875 L 9.9375 -13.25 Z M 11.671875 -13.25 "/></g></g></g><g fill="#ffffff" fill-opacity="1"><g transform="translate(274.092819, 208.188092)"><g><path d="M 3.15625 -13.25 L 3.15625 -4.859375 C 3.15625 -3.679688 3.441406 -2.804688 4.015625 -2.234375 C 4.597656 -1.671875 5.398438 -1.390625 6.421875 -1.390625 C 7.429688 -1.390625 8.222656 -1.671875 8.796875 -2.234375 C 9.378906 -2.804688 9.671875 -3.679688 9.671875 -4.859375 L 9.671875 -13.25 L 11.40625 -13.25 L 11.40625 -4.890625 C 11.40625 -3.785156 11.179688 -2.851562 10.734375 -2.09375 C 10.285156 -1.34375 9.6875 -0.78125 8.9375 -0.40625 C 8.1875 -0.0390625 7.34375 0.140625 6.40625 0.140625 C 5.46875 0.140625 4.617188 -0.0390625 3.859375 -0.40625 C 3.109375 -0.78125 2.515625 -1.34375 2.078125 -2.09375 C 1.640625 -2.851562 1.421875 -3.785156 1.421875 -4.890625 L 1.421875 -13.25 Z M 3.15625 -13.25 "/></g></g></g><g fill="#ffffff" fill-opacity="1"><g transform="translate(286.915202, 208.188092)"><g><path d="M 8.09375 -6.828125 C 8.570312 -6.742188 9.007812 -6.539062 9.40625 -6.21875 C 9.8125 -5.90625 10.128906 -5.515625 10.359375 -5.046875 C 10.597656 -4.578125 10.71875 -4.078125 10.71875 -3.546875 C 10.71875 -2.878906 10.546875 -2.273438 10.203125 -1.734375 C 9.859375 -1.203125 9.359375 -0.78125 8.703125 -0.46875 C 8.054688 -0.15625 7.289062 0 6.40625 0 L 1.46875 0 L 1.46875 -13.25 L 6.21875 -13.25 C 7.113281 -13.25 7.878906 -13.097656 8.515625 -12.796875 C 9.148438 -12.492188 9.625 -12.085938 9.9375 -11.578125 C 10.25 -11.078125 10.40625 -10.507812 10.40625 -9.875 C 10.40625 -9.09375 10.191406 -8.441406 9.765625 -7.921875 C 9.347656 -7.410156 8.789062 -7.046875 8.09375 -6.828125 Z M 3.1875 -7.53125 L 6.09375 -7.53125 C 6.90625 -7.53125 7.53125 -7.71875 7.96875 -8.09375 C 8.414062 -8.46875 8.640625 -8.992188 8.640625 -9.671875 C 8.640625 -10.335938 8.414062 -10.859375 7.96875 -11.234375 C 7.53125 -11.617188 6.894531 -11.8125 6.0625 -11.8125 L 3.1875 -11.8125 Z M 6.25 -1.421875 C 7.113281 -1.421875 7.785156 -1.625 8.265625 -2.03125 C 8.742188 -2.4375 8.984375 -3 8.984375 -3.71875 C 8.984375 -4.457031 8.726562 -5.035156 8.21875 -5.453125 C 7.71875 -5.878906 7.039062 -6.09375 6.1875 -6.09375 L 3.1875 -6.09375 L 3.1875 -1.421875 Z M 6.25 -1.421875 "/></g></g></g><g transform="matrix(1, 0, 0, 1, 157, 162)"><g clip-path="url(#9c2800c98d)"><g fill="#ffffff" fill-opacity="1"><g transform="translate(0.642296, 21.689345)"><g><path d="M 10.53125 -17.546875 C 12.1875 -17.546875 13.675781 -17.296875 15 -16.796875 C 16.320312 -16.296875 17.367188 -15.554688 18.140625 -14.578125 C 18.921875 -13.597656 19.3125 -12.410156 19.3125 -11.015625 L 14.015625 -11.015625 C 14.015625 -11.734375 13.695312 -12.3125 13.0625 -12.75 C 12.425781 -13.195312 11.660156 -13.421875 10.765625 -13.421875 C 9.453125 -13.421875 8.460938 -13.070312 7.796875 -12.375 C 7.128906 -11.675781 6.796875 -10.691406 6.796875 -9.421875 L 6.796875 -7.828125 C 6.796875 -6.554688 7.128906 -5.570312 7.796875 -4.875 C 8.460938 -4.1875 9.453125 -3.84375 10.765625 -3.84375 C 11.660156 -3.84375 12.425781 -4.050781 13.0625 -4.46875 C 13.695312 -4.894531 14.015625 -5.445312 14.015625 -6.125 L 10.109375 -6.125 L 10.109375 -9.625 L 19.3125 -9.625 L 19.3125 0 L 16.453125 0 L 15.90625 -1.703125 C 14.332031 -0.367188 12.273438 0.296875 9.734375 0.296875 C 6.867188 0.296875 4.71875 -0.445312 3.28125 -1.9375 C 1.84375 -3.4375 1.125 -5.664062 1.125 -8.625 C 1.125 -11.550781 1.9375 -13.769531 3.5625 -15.28125 C 5.195312 -16.789062 7.519531 -17.546875 10.53125 -17.546875 Z M 10.53125 -17.546875 "/></g></g></g><g fill="#ffffff" fill-opacity="1"><g transform="translate(21.530763, 21.689345)"><g><path d="M 18.234375 -11.96875 C 18.234375 -10.90625 17.945312 -9.945312 17.375 -9.09375 C 16.8125 -8.25 15.984375 -7.625 14.890625 -7.21875 L 18.734375 0 L 12.515625 0 L 9.453125 -6.296875 L 7.390625 -6.296875 L 7.390625 0 L 1.859375 0 L 1.859375 -17.25 L 12.40625 -17.25 C 13.644531 -17.25 14.703125 -17.007812 15.578125 -16.53125 C 16.460938 -16.0625 17.125 -15.421875 17.5625 -14.609375 C 18.007812 -13.796875 18.234375 -12.914062 18.234375 -11.96875 Z M 12.59375 -11.734375 C 12.59375 -12.179688 12.441406 -12.554688 12.140625 -12.859375 C 11.835938 -13.160156 11.46875 -13.3125 11.03125 -13.3125 L 7.390625 -13.3125 L 7.390625 -10.125 L 11.03125 -10.125 C 11.46875 -10.125 11.835938 -10.28125 12.140625 -10.59375 C 12.441406 -10.90625 12.59375 -11.285156 12.59375 -11.734375 Z M 12.59375 -11.734375 "/></g></g></g><g fill="#ffffff" fill-opacity="1"><g transform="translate(41.040033, 21.689345)"><g><path d="M 13.421875 0 L 12.6875 -2.4375 L 6.640625 -2.4375 L 5.921875 0 L 0.25 0 L 6.546875 -17.25 L 12.984375 -17.25 L 19.28125 0 Z M 7.796875 -6.296875 L 11.53125 -6.296875 L 9.734375 -12.4375 L 9.625 -12.4375 Z M 7.796875 -6.296875 "/></g></g></g><g fill="#ffffff" fill-opacity="1"><g transform="translate(60.549304, 21.689345)"><g><path d="M 9.328125 -17.25 C 15.359375 -17.25 18.375 -14.375 18.375 -8.625 C 18.375 -2.875 15.359375 0 9.328125 0 L 1.859375 0 L 1.859375 -17.25 Z M 7.390625 -4.140625 L 9.234375 -4.140625 C 11.554688 -4.140625 12.71875 -5.382812 12.71875 -7.875 L 12.71875 -9.375 C 12.71875 -11.863281 11.554688 -13.109375 9.234375 -13.109375 L 7.390625 -13.109375 Z M 7.390625 -4.140625 "/></g></g></g><g fill="#ffffff" fill-opacity="1"><g transform="translate(80.058574, 21.689345)"><g><path d="M 1.859375 -17.25 L 16.78125 -17.25 L 16.78125 -13.109375 L 7.390625 -13.109375 L 7.390625 -10.734375 L 15.421875 -10.734375 L 15.421875 -6.765625 L 7.390625 -6.765625 L 7.390625 -4.140625 L 16.953125 -4.140625 L 16.953125 0 L 1.859375 0 Z M 1.859375 -17.25 "/></g></g></g><g fill="#ffffff" fill-opacity="1"><g transform="translate(98.163585, 21.689345)"><g><path d="M 9.328125 -17.25 C 15.359375 -17.25 18.375 -14.375 18.375 -8.625 C 18.375 -2.875 15.359375 0 9.328125 0 L 1.859375 0 L 1.859375 -17.25 Z M 7.390625 -4.140625 L 9.234375 -4.140625 C 11.554688 -4.140625 12.71875 -5.382812 12.71875 -7.875 L 12.71875 -9.375 C 12.71875 -11.863281 11.554688 -13.109375 9.234375 -13.109375 L 7.390625 -13.109375 Z M 7.390625 -4.140625 "/></g></g></g></g></g></svg>